<svg width="15" height="17" viewBox="0 0 15 17" fill="none" xmlns="http://www.w3.org/2000/svg">
<path d="M12.9897 1.02554C13.8887 1.77992 14.3556 2.77611 14.3903 4.01412C14.425 5.25211 14.0175 6.37733 13.168 7.38976L6.89142 14.8699C6.28024 15.5983 5.52673 16.0286 4.63089 16.1608C3.73507 16.293 2.96376 16.0877 2.31696 15.545C1.67017 15.0023 1.3341 14.2783 1.30874 13.3732C1.28338 12.468 1.57629 11.6512 2.18747 10.9228L7.84981 4.17473C8.23756 3.71262 8.707 3.4409 9.25811 3.35959C9.80922 3.27829 10.29 3.40983 10.7004 3.7542C11.1108 4.09856 11.3237 4.54913 11.3393 5.10589C11.3548 5.66266 11.1687 6.17209 10.7809 6.6342L5.11856 13.3823L4.38581 12.7675L10.0481 6.01935C10.2443 5.78554 10.3386 5.53062 10.3308 5.2546C10.3231 4.97857 10.2154 4.75346 10.0078 4.57924C9.80018 4.40503 9.55978 4.33808 9.28661 4.3784C9.01343 4.41871 8.77875 4.55578 8.58256 4.78958L2.92023 11.5377C2.49181 12.0483 2.28627 12.6112 2.30361 13.2265C2.32093 13.8418 2.55636 14.3397 3.00989 14.7202C3.4634 15.1008 3.99447 15.246 4.6031 15.156C5.21171 15.0659 5.73023 14.7656 6.15865 14.255L12.4352 6.77489C13.089 5.99583 13.4023 5.12549 13.3754 4.16388C13.3485 3.20228 12.9891 2.43123 12.2973 1.85073C11.6055 1.27023 10.7837 1.05021 9.83207 1.19066C8.88039 1.33112 8.07769 1.79088 7.42398 2.56995L1.14739 10.0501L0.414617 9.43523L6.69121 1.95508C7.54074 0.942645 8.57811 0.346025 9.80333 0.165215C11.0285 -0.0156067 12.0907 0.271169 12.9897 1.02554Z" fill="white"/>
</svg>
