<svg width="15" height="12" viewBox="0 0 15 12" fill="none" xmlns="http://www.w3.org/2000/svg">
<path d="M14.8506 2.80001C14.8506 2.80001 14.7041 1.69689 14.2529 1.21251C13.6816 0.575012 13.043 0.571887 12.75 0.534387C10.6523 0.371887 7.50293 0.371887 7.50293 0.371887H7.49707C7.49707 0.371887 4.34766 0.371887 2.25 0.534387C1.95703 0.571887 1.31836 0.575012 0.74707 1.21251C0.295898 1.69689 0.152344 2.80001 0.152344 2.80001C0.152344 2.80001 0 4.09689 0 5.39064V6.60314C0 7.89689 0.149414 9.19376 0.149414 9.19376C0.149414 9.19376 0.295898 10.2969 0.744141 10.7813C1.31543 11.4188 2.06543 11.3969 2.39941 11.4656C3.60059 11.5875 7.5 11.625 7.5 11.625C7.5 11.625 10.6523 11.6188 12.75 11.4594C13.043 11.4219 13.6816 11.4188 14.2529 10.7813C14.7041 10.2969 14.8506 9.19376 14.8506 9.19376C14.8506 9.19376 15 7.90001 15 6.60314V5.39064C15 4.09689 14.8506 2.80001 14.8506 2.80001ZM5.9502 8.07501V3.57814L10.002 5.83439L5.9502 8.07501Z" fill="#373334"/>
</svg>
