<svg width="20" height="20" viewBox="0 0 20 20" fill="none" xmlns="http://www.w3.org/2000/svg">
<g clip-path="url(#clip0_701_298)">
<path d="M0 19.633H20V6.22942H0V19.633ZM14.8281 8.18375H16.8972V10.2528H14.8281V8.18375ZM14.8281 11.7013H16.8972V13.7704H14.8281V11.7013ZM14.8281 15.2189H16.8972V17.288H14.8281V15.2189ZM10.9197 8.18375H12.9887V10.2528H10.9197V8.18375ZM10.9197 11.7013H12.9887V13.7704H10.9197V11.7013ZM10.9197 15.2189H12.9887V17.288H10.9197V15.2189ZM7.01121 8.18375H9.08029V10.2528H7.01121V8.18375ZM7.01121 11.7013H9.08029V13.7704H7.01121V11.7013ZM7.01121 15.2189H9.08029V17.288H7.01121V15.2189ZM3.10283 8.18375H5.17186V10.2528H3.10283V8.18375ZM3.10283 11.7013H5.17186V13.7704H3.10283V11.7013ZM5.17186 15.2189V17.288H3.10283V15.2189H5.17186Z" fill="#373334"/>
<path d="M20 1.53949H16.4824V3.88452H15.3099V1.53949H4.69006V3.88452H3.5176V1.53949H0V5.05705H20V1.53949Z" fill="#373334"/>
<path d="M4.6901 0.366903H3.51764V1.53936H4.6901V0.366903Z" fill="#373334"/>
<path d="M16.4824 0.366903H15.3099V1.53936H16.4824V0.366903Z" fill="#373334"/>
</g>
<defs>
<clipPath id="clip0_701_298">
<rect width="20" height="20" fill="white"/>
</clipPath>
</defs>
</svg>
