<svg width="25" height="24" viewBox="0 0 25 24" fill="none" xmlns="http://www.w3.org/2000/svg">
<g clip-path="url(#clip0_863_518)">
<rect width="25" height="24" rx="12" fill="white"/>
<rect width="25" height="24" rx="12" fill="#373334"/>
<path d="M20.7573 13.2148C20.9088 12.55 20.6013 11.9268 19.8862 11.5575C19.3026 11.2693 18.6324 11.361 18.1234 11.8411C17.9271 12.0449 17.7674 12.3074 17.6443 12.6286C16.6078 14.9857 14.1262 16.4506 11.5536 16.3425C11.4006 16.3564 11.2476 16.3702 11.0946 16.3841C10.2714 16.4896 9.70418 17.0061 9.72065 17.8107C9.67891 18.6515 10.1394 19.2609 10.9925 19.4626C11.1821 19.5075 11.3351 19.4936 11.4665 19.5747L11.5613 19.5972C12.7786 19.7349 14.0242 19.5291 15.4146 18.9071L15.1333 20.1417C14.8953 21.1864 14.6356 22.326 14.3976 23.3707C14.3327 23.6556 14.1884 24.5 14.5 25C14.8292 25.5282 15.4882 25.3801 16.1584 25.2884C16.4062 25.297 16.5808 25.1882 16.7554 25.0793C17.0465 24.898 17.3226 24.5629 17.3726 24.1244C17.6972 22.6998 17.9568 21.5602 18.2165 20.4206C18.2381 20.3256 18.2381 20.3256 18.2381 20.3256C18.2381 20.3256 18.2963 20.2893 18.3329 20.348C19.1278 20.5861 19.9443 20.7291 20.7392 20.9672C21.1183 21.0569 21.4975 21.1465 21.8766 21.2362C22.3506 21.3483 22.6566 21.3206 23.0058 21.1029C23.5663 20.8352 23.929 20.1202 23.8327 19.4469C23.7729 18.8322 23.2908 18.3179 22.6638 18.2196C21.716 17.9954 20.7315 17.7126 19.7254 17.5246L18.114 17.1435C18.6014 16.7584 19.1104 16.2782 19.488 15.717C20.1783 14.8794 20.5626 14.0695 20.7573 13.2148Z" fill="white"/>
<path d="M14.7269 14.691C17.2301 13.1312 18.024 9.86594 16.4513 7.34211C15.6832 6.10954 14.486 5.22587 13.0642 4.88959C11.6424 4.5533 10.2437 4.77298 9.07949 5.49848C6.57634 7.0583 5.87722 10.3459 7.35515 12.8474C8.12322 14.0799 9.28384 14.9049 10.7057 15.2412C12.1058 15.6724 13.5045 15.4528 14.7269 14.691ZM9.78878 9.61966C9.91861 9.04985 10.2746 8.58356 10.7403 8.29336C11.7881 7.64041 13.0569 7.99055 13.6787 8.98834C14.3371 10.0448 13.9975 11.3157 13.0079 11.9324C11.9601 12.5853 10.6913 12.2352 10.0695 11.2374C9.77692 10.7678 9.65895 10.1895 9.78878 9.61966Z" fill="white"/>
<path d="M20.7573 13.2148C20.9088 12.55 20.6013 11.9268 19.8862 11.5575C19.3026 11.2693 18.6324 11.361 18.1234 11.8411C17.9271 12.0449 17.7674 12.3074 17.6443 12.6286C16.6078 14.9857 14.1262 16.4506 11.5536 16.3425C11.4006 16.3564 11.2476 16.3702 11.0946 16.3841C10.2714 16.4896 9.70418 17.0061 9.72065 17.8107C9.67891 18.6515 10.1394 19.2609 10.9925 19.4626C11.1821 19.5075 11.3351 19.4936 11.4665 19.5747L11.5613 19.5972C12.7786 19.7349 14.0242 19.5291 15.4146 18.9071L15.1333 20.1417C14.8953 21.1864 14.6356 22.326 14.3976 23.3707C14.3327 23.6556 14.1884 24.5 14.5 25C14.8292 25.5282 15.4882 25.3801 16.1584 25.2884C16.4062 25.297 16.5808 25.1882 16.7554 25.0793C17.0465 24.898 17.3226 24.5629 17.3726 24.1244C17.6972 22.6998 17.9568 21.5602 18.2165 20.4206C18.2381 20.3256 18.2381 20.3256 18.2381 20.3256C18.2381 20.3256 18.2963 20.2893 18.3329 20.348C19.1278 20.5861 19.9443 20.7291 20.7392 20.9672C21.1183 21.0569 21.4975 21.1465 21.8766 21.2362C22.3506 21.3483 22.6566 21.3206 23.0058 21.1029C23.5663 20.8352 23.929 20.1202 23.8327 19.4469C23.7729 18.8322 23.2908 18.3179 22.6638 18.2196C21.716 17.9954 20.7315 17.7126 19.7254 17.5246L18.114 17.1435C18.6014 16.7584 19.1104 16.2782 19.488 15.717C20.1783 14.8794 20.5626 14.0695 20.7573 13.2148Z" fill="white"/>
</g>
<defs>
<clipPath id="clip0_863_518">
<rect width="25" height="24" rx="12" fill="white"/>
</clipPath>
</defs>
</svg>
