<svg width="25" height="24" viewBox="0 0 25 24" fill="none" xmlns="http://www.w3.org/2000/svg">
<g clip-path="url(#clip0_701_202)">
<ellipse cx="12.4706" cy="11.9412" rx="12.3529" ry="11.9412" fill="#373334"/>
<path d="M15.2015 18.8848L14.4941 19.0763C13.1038 19.6765 11.5516 19.8489 10.0436 19.5705C9.76448 19.533 9.50464 19.4068 9.30489 19.2115C9.16442 19.0492 9.0657 18.857 9.01708 18.6513C8.96846 18.4456 8.97136 18.2323 9.02555 18.0294C9.08726 17.744 9.25456 17.492 9.49598 17.3208C9.7374 17.1496 10.0363 17.0709 10.3366 17.0995C10.7298 17.1008 11.1058 17.1668 11.4991 17.1681C12.3523 17.1323 13.1886 16.9411 13.9643 16.6045C15.1378 16.1363 16.1553 15.3686 16.9104 14.3814C17.1579 14.0314 17.3732 13.6605 17.5536 13.273C17.7112 12.9201 17.9778 12.6248 18.3172 12.4274C18.5271 12.3152 18.7672 12.2657 19.0079 12.285C19.2486 12.3043 19.4794 12.3915 19.6717 12.5358C19.808 12.6138 19.9273 12.7171 20.0229 12.8396C20.1185 12.9621 20.1884 13.1014 20.2286 13.2495C20.2687 13.3976 20.2784 13.5515 20.2569 13.7022C20.2355 13.853 20.1833 13.9976 20.1036 14.1278C19.8537 14.848 19.4798 15.5203 18.9977 16.1161C18.5172 16.6833 17.9718 17.1953 17.3717 17.6424L16.9512 17.876L17.168 17.9571L22.3323 19.3379C22.5905 19.3915 22.8253 19.5246 23.0015 19.7173C23.1777 19.9099 23.2859 20.1518 23.3099 20.4067C23.3452 20.6629 23.304 20.9223 23.1911 21.154C23.0782 21.3856 22.8984 21.5797 22.6733 21.7131C22.5411 21.7852 22.3946 21.8302 22.2429 21.8452C22.0912 21.8602 21.9375 21.8448 21.7911 21.8002L18.0762 20.8415L17.6648 20.6854C17.5453 20.6419 17.4892 20.673 17.4545 20.8022L16.9176 22.8042C16.7328 23.4931 16.562 24.1742 16.2989 24.8882C16.2176 25.1707 16.026 25.4098 15.7646 25.555C15.5031 25.7003 15.1922 25.7404 14.8973 25.667C14.5929 25.6078 14.3157 25.4526 14.1091 25.2256C13.985 25.0884 13.897 24.9242 13.8529 24.7474C13.8087 24.5707 13.8099 24.3868 13.8561 24.212L14.5779 21.5211L15.1718 19.0845L15.2015 18.8848Z" fill="white"/>
<path d="M8.62375 5.95093C9.53037 5.44367 10.5761 5.21207 11.6281 5.28557C12.6801 5.35907 13.6908 5.73436 14.5318 6.36374C15.3728 6.99312 16.0061 7.84816 16.3512 8.8202C16.6963 9.79225 16.7376 10.8374 16.4699 11.8228C16.2023 12.8083 15.6376 13.6895 14.8478 14.3545C14.0581 15.0194 13.0787 15.4382 12.0344 15.5575C10.99 15.6768 9.92778 15.4912 8.98264 15.0244C8.03749 14.5575 7.25214 13.8305 6.72639 12.9357C6.0245 11.7494 5.83007 10.349 6.18556 9.04034C6.54105 7.73166 7.41759 6.62102 8.62375 5.95093ZM9.03166 11.6733C9.28973 12.1155 9.67567 12.4758 10.1408 12.7085C10.6059 12.9412 11.1294 13.0361 11.6453 12.9811C12.1611 12.926 12.6462 12.7236 13.0393 12.3993C13.4324 12.0751 13.716 11.6434 13.8543 11.1589C13.9925 10.6744 13.9793 10.1586 13.8162 9.67674C13.6531 9.19485 13.3475 8.76838 12.9379 8.45111C12.5283 8.13385 12.033 7.94001 11.5146 7.89404C10.9962 7.84806 10.4778 7.95202 10.0248 8.19279C9.72241 8.35353 9.45667 8.57129 9.2429 8.83353C9.02914 9.09577 8.87157 9.39731 8.77926 9.7208C8.68695 10.0443 8.66173 10.3833 8.70505 10.7184C8.74837 11.0535 8.85937 11.378 9.03166 11.6733Z" fill="white"/>
</g>
<defs>
<clipPath id="clip0_701_202">
<rect width="24.7059" height="23.8824" fill="white" transform="translate(0.117676)"/>
</clipPath>
</defs>
</svg>
