<svg width="29" height="29" viewBox="0 0 29 29" fill="none" xmlns="http://www.w3.org/2000/svg">
<mask id="mask0_859_79" style="mask-type:alpha" maskUnits="userSpaceOnUse" x="0" y="0" width="29" height="29">
<rect x="28.5439" y="17.0326" width="19.2549" height="21.6837" transform="rotate(141.767 28.5439 17.0326)" fill="#D9D9D9"/>
</mask>
<g mask="url(#mask0_859_79)">
<path d="M9.06048 7.21109C9.98235 6.4848 11.0528 6.23091 12.2719 6.44943C13.4909 6.66793 14.5094 7.29626 15.3273 8.3344L21.3703 16.0045C21.9587 16.7514 22.2263 17.5768 22.173 18.4808C22.1197 19.3848 21.7615 20.098 21.0983 20.6205C20.4351 21.1431 19.6578 21.3244 18.7665 21.1647C17.8752 21.0049 17.1353 20.5516 16.5468 19.8047L11.0953 12.8852C10.722 12.4113 10.5517 11.8964 10.5845 11.3403C10.6173 10.7841 10.8441 10.3403 11.2649 10.0088C11.6857 9.67722 12.1703 9.56062 12.7185 9.65896C13.2667 9.75732 13.7275 10.0434 14.1008 10.5173L19.5524 17.4368L18.801 18.0287L13.3495 11.1092C13.1606 10.8695 12.9302 10.7253 12.6584 10.6765C12.3866 10.6278 12.1443 10.6873 11.9314 10.8551C11.7185 11.0228 11.6039 11.2445 11.5877 11.5201C11.5715 11.7958 11.6578 12.0535 11.8467 12.2932L17.2982 19.2127C17.7107 19.7363 18.2199 20.0523 18.8258 20.1608C19.4317 20.2693 19.9671 20.1404 20.4322 19.774C20.8972 19.4076 21.1477 18.9173 21.1837 18.3031C21.2196 17.6889 21.0314 17.1201 20.6189 16.5965L14.5759 8.92638C13.9466 8.12753 13.1584 7.64324 12.2115 7.4735C11.2646 7.30377 10.4365 7.49835 9.72712 8.05724C9.01774 8.61613 8.63476 9.37573 8.57818 10.336C8.52161 11.2964 8.80801 12.1759 9.43739 12.9748L15.4803 20.6449L14.729 21.2369L8.68601 13.5668C7.8681 12.5286 7.49557 11.3914 7.56842 10.1551C7.64127 8.91871 8.13862 7.93739 9.06048 7.21109Z" fill="white"/>
</g>
</svg>
