<svg width="13" height="12" viewBox="0 0 13 12" fill="none" xmlns="http://www.w3.org/2000/svg">
<path fill-rule="evenodd" clip-rule="evenodd" d="M6.07943 1.1371C6.20441 1.26212 6.27462 1.43167 6.27462 1.60845C6.27462 1.78524 6.20441 1.95478 6.07943 2.07981L2.55076 5.60865H11.6081C11.7849 5.60865 11.9545 5.67889 12.0795 5.80392C12.2045 5.92895 12.2748 6.09853 12.2748 6.27535C12.2748 6.45217 12.2045 6.62175 12.0795 6.74678C11.9545 6.87181 11.7849 6.94205 11.6081 6.94205H2.55076L6.07943 10.4709C6.20086 10.5966 6.26806 10.765 6.26654 10.9398C6.26502 11.1147 6.19491 11.2819 6.07131 11.4055C5.9477 11.5291 5.78049 11.5992 5.60569 11.6007C5.4309 11.6022 5.26249 11.535 5.13676 11.4136L0.470093 6.74671C0.345113 6.62168 0.274902 6.45213 0.274902 6.27535C0.274902 6.09856 0.345113 5.92902 0.470093 5.80399L5.13676 1.1371C5.26178 1.01211 5.43132 0.941895 5.60809 0.941895C5.78487 0.941895 5.95441 1.01211 6.07943 1.1371Z" fill="#9F0023"/>
</svg>
