<svg width="24" height="24" viewBox="0 0 24 24" fill="none" xmlns="http://www.w3.org/2000/svg">
<g clip-path="url(#clip0_701_207)">
<path d="M22.8291 7.16474C22.8291 7.16474 22.604 5.51816 21.9104 4.79516C21.0322 3.8436 20.0504 3.83893 19.6 3.78296C16.3754 3.54041 11.5339 3.54041 11.5339 3.54041H11.5249C11.5249 3.54041 6.68346 3.54041 3.45882 3.78296C3.00846 3.83893 2.02665 3.8436 1.14844 4.79516C0.454871 5.51816 0.234191 7.16474 0.234191 7.16474C0.234191 7.16474 0 9.10052 0 11.0316V12.8415C0 14.7726 0.229688 16.7084 0.229688 16.7084C0.229688 16.7084 0.454871 18.3549 1.14393 19.0779C2.02215 20.0295 3.17509 19.9968 3.68851 20.0995C5.53502 20.2814 11.5294 20.3374 11.5294 20.3374C11.5294 20.3374 16.3754 20.328 19.6 20.0901C20.0504 20.0342 21.0322 20.0295 21.9104 19.0779C22.604 18.3549 22.8291 16.7084 22.8291 16.7084C22.8291 16.7084 23.0588 14.7772 23.0588 12.8415V11.0316C23.0588 9.10052 22.8291 7.16474 22.8291 7.16474ZM9.14697 15.0385V8.32621L15.3756 11.694L9.14697 15.0385Z" fill="#373334"/>
</g>
<defs>
<clipPath id="clip0_701_207">
<rect width="23.0588" height="23.8824" fill="white"/>
</clipPath>
</defs>
</svg>
