<svg width="28" height="28" viewBox="0 0 28 28" fill="none" xmlns="http://www.w3.org/2000/svg">
<path d="M16.0441 10.5609C16.0441 11.2695 16.0165 11.9373 16.0126 12.597C16.004 12.9568 16.0452 13.316 16.1348 13.6639C16.1891 13.8859 16.3105 14.0842 16.4815 14.2299C16.5238 14.2642 16.5734 14.2876 16.6261 14.2983C16.6789 14.3089 16.7333 14.3064 16.785 14.291C16.9691 14.2302 17.1375 14.1272 17.2776 13.9896C17.6144 13.6687 17.9182 13.3126 18.1839 12.9268C19.1262 11.5788 19.9032 10.1153 20.4971 8.56969C20.6035 8.30908 20.7059 8.05254 20.8045 7.78785C20.8749 7.58555 21.0153 7.41732 21.1985 7.31549C21.3132 7.27185 21.4349 7.25113 21.5571 7.25441C21.6123 7.25441 21.6714 7.25441 21.7305 7.25441H25.6712C25.9392 7.25441 26.2072 7.25441 26.4594 7.25441C26.5949 7.27245 26.7275 7.30944 26.8534 7.36435C26.9556 7.39517 27.0448 7.46041 27.107 7.5497C27.1691 7.63899 27.2005 7.74719 27.1963 7.85708C27.1963 8.13664 27.1427 8.41344 27.0386 8.67149C26.7744 9.33257 26.4414 9.96201 26.0456 10.5487C25.3087 11.7133 24.4693 12.8006 23.6812 13.9123C23.4171 14.2828 23.1689 14.6656 22.9324 15.0525C22.7924 15.2665 22.7284 15.5241 22.7512 15.7814C22.7848 16.0306 22.8954 16.2619 23.0664 16.441C23.3541 16.7587 23.6457 17.0722 23.9531 17.3695C24.7766 18.1291 25.5494 18.9453 26.2663 19.8127C26.6005 20.2245 26.8886 20.6739 27.1253 21.1524C27.1835 21.2816 27.2233 21.4187 27.2436 21.5596C27.2792 21.7154 27.2651 21.879 27.2033 22.0258C27.1415 22.1726 27.0353 22.2948 26.9007 22.3741C26.6373 22.546 26.3334 22.6404 26.0219 22.6469C24.8594 22.6795 23.6969 22.6713 22.5384 22.7406C21.7932 22.778 21.0626 22.5186 20.4971 22.0157C20.0701 21.653 19.6745 21.2524 19.3149 20.8185C18.9208 20.3747 18.5543 19.9267 18.1327 19.5032C17.9535 19.3215 17.7506 19.1666 17.5298 19.0431C17.3882 18.9535 17.2203 18.9191 17.0563 18.946C16.8924 18.9728 16.743 19.0592 16.6352 19.1897C16.44 19.4327 16.3036 19.7203 16.2372 20.0285C16.1108 20.4984 16.0406 20.9825 16.0284 21.4701C16.0224 21.5914 16.0106 21.7124 15.9929 21.8325C15.9707 21.9865 15.9073 22.131 15.8098 22.2498C15.7123 22.3685 15.5846 22.4567 15.4412 22.5044C15.2502 22.587 15.0453 22.6299 14.8383 22.6306C14.3181 22.6306 13.7979 22.6306 13.262 22.6306C12.3438 22.6196 11.435 22.439 10.5784 22.0972C9.0316 21.495 7.6476 20.5174 6.54311 19.2467C5.44707 18.0007 4.47047 16.6479 3.627 15.2072C2.29103 12.969 1.10601 10.6383 0.08038 8.23171C0.0134384 8.07296 -0.0123652 7.89895 0.00550685 7.72677C0.00929083 7.6624 0.0300079 7.60031 0.0654244 7.54721C0.100841 7.49411 0.149613 7.452 0.206482 7.42544C0.400795 7.32405 0.615372 7.27105 0.833052 7.2707H4.7501C4.98238 7.28695 5.20509 7.37257 5.39118 7.51715C5.57726 7.66173 5.7187 7.85904 5.79832 8.08511C6.13666 9.0094 6.54377 9.90523 7.016 10.7645C7.52725 11.7212 8.10268 12.6396 8.73808 13.5132C8.95362 13.8363 9.22002 14.1199 9.52621 14.3521C9.62374 14.4363 9.7435 14.4883 9.86997 14.5014C9.99645 14.5144 10.1238 14.488 10.2355 14.4254C10.3577 14.3498 10.4531 14.2356 10.5074 14.0996C10.6506 13.7598 10.7384 13.398 10.7675 13.0286C10.8536 12.1683 10.8707 11.302 10.8188 10.4388C10.8092 9.92351 10.7578 9.40999 10.6651 8.9036C10.6414 8.77737 10.5981 8.65521 10.5744 8.52897C10.546 8.41158 10.4932 8.30197 10.4197 8.20775C10.3463 8.11353 10.2538 8.03695 10.1488 7.98331C9.87836 7.80957 9.57172 7.70488 9.25431 7.6779C9.16367 7.6779 9.13214 7.62904 9.17155 7.5476C9.20529 7.46653 9.25044 7.39106 9.30554 7.32363C9.59373 6.99976 9.98287 6.79078 10.405 6.73318C11.0165 6.62473 11.6368 6.577 12.2571 6.59066C12.9467 6.59066 13.6403 6.59066 14.3339 6.63545C14.6348 6.65517 14.9331 6.70564 15.2245 6.78612C15.4564 6.83376 15.666 6.96108 15.8191 7.14738C15.9722 7.33368 16.0598 7.56801 16.0678 7.81228C16.1013 8.2049 16.1131 8.59918 16.1032 8.99319C16.0953 9.52663 16.0638 10.0641 16.0441 10.5609Z" fill="#373334"/>
</svg>
