<?xml version="1.0" encoding="UTF-8"?><!DOCTYPE svg PUBLIC "-//W3C//DTD SVG 1.1//EN" "http://www.w3.org/Graphics/SVG/1.1/DTD/svg11.dtd"><svg xmlns="http://www.w3.org/2000/svg" xmlns:xlink="http://www.w3.org/1999/xlink"><defs><filter id="filter0_b_701_93" x="-3.906" y="-3.849" width="143.813" height="143.813" filterUnits="userSpaceOnUse" color-interpolation-filters="sRGB"><feFlood flood-opacity="0" result="BackgroundImageFix"/><feGaussianBlur in="BackgroundImageFix" stdDeviation="2"/><feComposite in2="SourceAlpha" operator="in" result="effect1_backgroundBlur_701_93"/><feBlend in="SourceGraphic" in2="effect1_backgroundBlur_701_93" result="shape"/></filter><clipPath id="clip0_701_298"><path fill="#fff" d="M0 0h20v20H0z"/></clipPath><clipPath id="clip0_701_200"><path fill="#fff" transform="translate(.059)" d="M0 0h23.882v23.882H0z"/></clipPath><clipPath id="clip0_701_202"><path fill="#fff" transform="translate(.118)" d="M0 0h24.706v23.882H0z"/></clipPath><clipPath id="clip0_701_179"><path fill="#fff" d="M0 0h16v16H0z"/></clipPath><clipPath id="clip0_701_207"><path fill="#fff" d="M0 0h23.059v23.882H0z"/></clipPath></defs><symbol id="icon-arow-pagination"><path d="M11.682 5.446L6.037 12h2.391L14 5.495 8.946 0H6.579l5.103 5.446z" fill="currentColor"/><path d="M12.006 4.727H0v1.897h12.006V4.727z" fill="currentColor"/></symbol><symbol id="icon-arow"><g fill="none"><path d="M18.205 8.242l.946 12.958 2.544-2.544-.972-12.828-11.205-.45L7 7.894l11.205.347z" fill="#373334"/><path d="M17.788 7.135L5.014 19.909l2.012 2.012L19.8 9.147l-2.012-2.012z" fill="#373334"/></g></symbol><symbol id="icon-burger"><g fill="none"><path d="M0 1h27M0 7h27M0 12h27" stroke="#000"/></g></symbol><symbol id="icon-button-video"><g fill="none"><g filter="url(#filter0_b_701_93)"><circle cx="68" cy="68.058" r="67.906" fill="#fff" fill-opacity=".65"/></g><path d="M88.372 68.058l-28.52 16.466V51.591l28.52 16.467z" fill="#373334"/></g></symbol><symbol id="icon-calendar"><g fill="none"><g clip-path="url(#clip0_701_298)" fill="#373334"><path d="M0 19.633h20V6.229H0v13.404zm14.828-11.45h2.07v2.07h-2.07v-2.07zm0 3.518h2.07v2.07h-2.07V11.7zm0 3.518h2.07v2.069h-2.07v-2.07zM10.92 8.184h2.069v2.069h-2.07v-2.07zm0 3.517h2.069v2.07h-2.07V11.7zm0 3.518h2.069v2.069h-2.07v-2.07zM7.01 8.184h2.07v2.069H7.01v-2.07zm0 3.517h2.07v2.07H7.01V11.7zm0 3.518h2.07v2.069H7.01v-2.07zM3.103 8.184h2.069v2.069h-2.07v-2.07zm0 3.517h2.069v2.07h-2.07V11.7zm2.069 3.518v2.069h-2.07v-2.07h2.07zM20 1.54h-3.518v2.345H15.31V1.539H4.69v2.346H3.518V1.539H0v3.518h20V1.54zM4.69.367H3.518v1.172H4.69V.367zM16.482.367H15.31v1.172h1.172V.367z"/></g></g></symbol><symbol id="icon-clip"><g fill="none"><path d="M14.41 13.147h0c.708 1.024.38 2.253-.746 2.785l.746-2.785zm0 0L7.401 3.018h0m7.01 10.13L7.4 3.017m0 0a3.535 3.535 0 00-.642-.7c.192.173.364.368.512.581h0m.13.119L7.27 2.9m0 0l7.009 10.129h0M7.271 2.899l7.01 10.13m0 0c.727 1.053.369 2.393-.789 2.94v.001m.788-2.941l-.788 2.941m0 0a2.296 2.296 0 01-.612.188m.612-.188l-.612.188m0 0c.277-.035.541-.111.784-.226l-.784.226zM2.55 1.718h0c-.779.369-1.294.975-1.488 1.697-.193.722-.05 1.505.44 2.213h0L7.02 13.6c.007.01.03.031.07.042l.008.002-5.466-7.899s0 0 0 0c-.48-.693-.648-1.511-.438-2.296.21-.784.766-1.409 1.528-1.77h0c.235-.11.481-.193.735-.247a3.535 3.535 0 00-.907.285zm7.72 13.389h-.001L5.562 8.303a1.231 1.231 0 01-.189-1.017c.096-.357.348-.632.673-.786.084-.04.171-.07.26-.093-.15.023-.295.066-.432.131-.342.162-.554.42-.632.713-.078.288-.02.629.19.934h0l4.707 6.802c.152.22.344.418.566.587a2.298 2.298 0 01-.436-.468zM8.057 7.124a1.567 1.567 0 00-.309-.33 1.405 1.405 0 01.18.212l3.213 4.645h0a.125.125 0 00.079.044L8.058 7.124z" fill="#fff" stroke="#fff"/></g></symbol><symbol id="icon-cur"><g fill="none"><path fill="#9F0023" d="M0 0h16v2H0z"/></g></symbol><symbol id="icon-fc-footer"><g fill="none"><g clip-path="url(#clip0_701_200)"><path d="M23.941 11.941C23.941 5.346 18.595 0 12 0 5.405 0 .059 5.346.059 11.941c0 5.96 4.367 10.9 10.075 11.796v-8.344H7.102V11.94h3.032v-2.63c0-2.993 1.783-4.646 4.51-4.646 1.307 0 2.674.233 2.674.233v2.938h-1.506c-1.483 0-1.946.92-1.946 1.866v2.24h3.312l-.53 3.45h-2.782v8.345c5.709-.895 10.075-5.836 10.075-11.796z" fill="#373334"/></g></g></symbol><symbol id="icon-fc"><g fill="none"><path d="M16 8a8 8 0 10-9.25 7.903v-5.59H4.719V8H6.75V6.237c0-2.005 1.194-3.112 3.022-3.112.875 0 1.79.156 1.79.156V5.25h-1.008c-.994 0-1.304.617-1.304 1.25V8h2.219l-.355 2.313H9.25v5.59A8.002 8.002 0 0016 8z" fill="#373334"/></g></symbol><symbol id="icon-insta-footer"><g fill="none"><path d="M23.823 11.5v4.981a6.442 6.442 0 01-4.177 5.975 8.616 8.616 0 01-3.242.54H7.76a6.893 6.893 0 01-3.932-1.122 6.367 6.367 0 01-2.826-3.87 6.752 6.752 0 01-.18-1.498V6.668c0-1.688.473-3.204 1.675-4.427A6.893 6.893 0 016.84.07C7.874-.024 8.908.004 9.921 0h6.603c1.492 0 2.926.241 4.201 1.068a6.388 6.388 0 012.884 3.79c.132.542.2 1.097.204 1.654.024 1.661 0 3.322 0 4.983l.01.003zm-21.276 0v5.03c0 1.946 1.033 3.266 2.688 4.169a5.34 5.34 0 002.598.568h8.901a5.732 5.732 0 002.943-.754c1.558-.903 2.413-2.233 2.413-4.042.02-3.36.027-6.719 0-10.082 0-1.988-1.127-3.3-2.826-4.172a5.252 5.252 0 00-2.45-.503H7.96a5.794 5.794 0 00-2.729.603c-1.65.858-2.647 2.195-2.684 4.107-.042 1.692 0 3.383 0 5.075z" fill="#373334"/><path d="M2.547 11.5v5.03c0 1.946 1.033 3.266 2.688 4.169a5.34 5.34 0 002.598.568h8.901a5.732 5.732 0 002.943-.754c1.558-.903 2.413-2.233 2.413-4.042.02-3.36.027-6.719 0-10.082 0-1.988-1.127-3.3-2.826-4.172a5.252 5.252 0 00-2.45-.503H7.96a5.794 5.794 0 00-2.729.603c-1.65.858-2.647 2.195-2.684 4.107-.042 1.692 0 3.383 0 5.075z" fill="#373334"/><path d="M12.333 16.412a5.331 5.331 0 115.41-5.32 5.382 5.382 0 01-5.41 5.32zm-3.677-5.33a3.686 3.686 0 103.688-3.618 3.674 3.674 0 00-3.688 3.618zM19.505 5.304a1.133 1.133 0 11-1.127-1.175 1.172 1.172 0 011.127 1.175z" fill="#fff"/></g></symbol><symbol id="icon-insta"><g fill="none"><path d="M15 7.5v3.249a4.2 4.2 0 01-2.724 3.896 5.62 5.62 0 01-2.115.353H4.524a4.495 4.495 0 01-2.564-.733 4.152 4.152 0 01-1.843-2.523A4.405 4.405 0 010 10.764V4.35c0-1.101.308-2.09 1.092-2.888A4.495 4.495 0 013.924.046C4.598-.014 5.273.003 5.934 0h4.306c.973 0 1.908.157 2.74.696a4.166 4.166 0 011.88 2.472c.087.353.131.715.133 1.079.016 1.083 0 2.166 0 3.25l.007.001zm-13.876 0v3.28c0 1.27.674 2.13 1.753 2.72a3.482 3.482 0 001.694.37h5.806a3.738 3.738 0 001.919-.492c1.016-.589 1.573-1.456 1.573-2.636a460.4 460.4 0 000-6.575c0-1.297-.735-2.153-1.843-2.721a3.425 3.425 0 00-1.598-.328H4.655a3.779 3.779 0 00-1.78.393c-1.077.56-1.727 1.431-1.751 2.678-.027 1.104 0 2.207 0 3.31z" fill="#373334"/><path d="M1.124 7.5v3.28c0 1.27.674 2.13 1.753 2.72a3.482 3.482 0 001.694.37h5.806a3.738 3.738 0 001.919-.492c1.016-.589 1.573-1.456 1.573-2.636a460.4 460.4 0 000-6.575c0-1.297-.735-2.153-1.843-2.721a3.425 3.425 0 00-1.598-.328H4.655a3.779 3.779 0 00-1.78.393c-1.077.56-1.727 1.431-1.751 2.678-.027 1.104 0 2.207 0 3.31z" fill="#373334"/><path d="M7.506 10.704a3.477 3.477 0 113.529-3.47 3.51 3.51 0 01-3.529 3.47zM5.108 7.226a2.404 2.404 0 102.405-2.36 2.396 2.396 0 00-2.405 2.36zM12.184 3.459a.74.74 0 11-.735-.766.764.764 0 01.735.766z" fill="#fff"/></g></symbol><symbol id="icon-logo"><g fill="none"><path fill-rule="evenodd" clip-rule="evenodd" d="M17.397 16.061c-.196.722-.476 1.096-1.377 1.304-1.997.38-3.994.478-5.992.477-1.997 0-3.994-.097-5.99-.477-.902-.207-1.182-.582-1.378-1.304-.395-2.02-.496-4.04-.495-6.061-.001-2.02.1-4.04.495-6.061.196-.722.476-1.097 1.377-1.304 1.997-.38 3.994-.477 5.991-.477 1.998 0 3.995.097 5.992.477.902.207 1.18.583 1.377 1.304.395 2.02.496 4.04.496 6.061 0 2.02-.1 4.04-.496 6.061zm2.66-6.07a36.273 36.273 0 00-.579-6.43A3.699 3.699 0 0016.573.592 36.65 36.65 0 0010.043 0H10.014a36.642 36.642 0 00-6.53.593A3.699 3.699 0 00.579 3.56 36.261 36.261 0 000 9.991v.018c.001 2.143.192 4.287.579 6.43a3.7 3.7 0 002.905 2.968c2.177.395 4.353.591 6.53.593H10.043a36.636 36.636 0 006.53-.593 3.7 3.7 0 002.905-2.967c.387-2.144.578-4.288.579-6.431v-.01-.008z" fill="#373334"/><path fill-rule="evenodd" clip-rule="evenodd" d="M15.127 13.336l-3.315-3.328L13.3 8.516c.112-.081.211-.18.29-.292l1.24-1.244c.311-.298.559-.598.559-1.029 0-.678-.552-1.229-1.233-1.229-.388 0-.704.193-.964.433l-.008.012-1.569 1.575-.005-.006L10.08 8.27 8.553 6.736l-.006.006L6.98 5.167 6.97 5.16c-.305-.289-.576-.438-.964-.438a1.23 1.23 0 00-1.233 1.23c0 .43.272.72.56 1.028l1.238 1.244c.08.113.178.21.29.292l1.488 1.492-3.315 3.328-.002-.007c-.171.211-.26.5-.26.792 0 .679.552 1.229 1.234 1.229.435 0 .752-.245 1.036-.564l1.186-1.192c.156-.096.29-.224.388-.377l1.464-1.47 1.464 1.47c.099.153.232.28.387.377l1.187 1.192c.274.27.601.564 1.036.564.681 0 1.234-.55 1.234-1.229 0-.293-.084-.57-.255-.782l-.007-.003zm53.851 1.287a1.148 1.148 0 00-.07-.29.372.372 0 00-.116-.163.253.253 0 00-.153-.05h-5.113v-3.378h4.417a.27.27 0 00.153-.046.338.338 0 00.116-.152c.031-.072.054-.165.07-.283.015-.117.023-.265.023-.444 0-.173-.008-.319-.023-.44a1.077 1.077 0 00-.07-.286.375.375 0 00-.116-.158.253.253 0 00-.153-.05h-4.417V5.959h5.076a.236.236 0 00.149-.05.397.397 0 00.11-.163c.032-.074.055-.17.07-.291a3.51 3.51 0 00.024-.44c0-.184-.008-.337-.023-.457a1.22 1.22 0 00-.07-.297.356.356 0 00-.111-.161.25.25 0 00-.149-.047h-6.784a.761.761 0 00-.515.18c-.14.121-.21.317-.21.588v10.436c0 .272.07.468.21.588.139.12.31.18.515.18h6.821a.252.252 0 00.153-.05.369.369 0 00.116-.163c.031-.073.055-.17.07-.291.016-.12.023-.27.023-.449a3.57 3.57 0 00-.023-.448zM57.14 4.979a1.937 1.937 0 00-.429-.297 4.267 4.267 0 00-.771-.319 7.784 7.784 0 00-1.087-.251 8.468 8.468 0 00-1.38-.104c-.92 0-1.754.141-2.502.423a5.302 5.302 0 00-1.916 1.217 5.43 5.43 0 00-1.227 1.933c-.289.758-.433 1.613-.433 2.566 0 .923.135 1.748.406 2.476a5.034 5.034 0 001.172 1.852 5.063 5.063 0 001.871 1.16c.737.266 1.571.4 2.503.4a10.056 10.056 0 002.787-.396c.288-.084.53-.165.726-.243.195-.078.324-.184.388-.319.063-.135.095-.292.095-.472V9.818c0-.12-.016-.226-.046-.319a.67.67 0 00-.13-.238.56.56 0 00-.456-.198h-3.94a.228.228 0 00-.145.05.386.386 0 00-.109.153c-.03.068-.052.16-.067.274a3.326 3.326 0 00-.023.422c0 .324.03.553.09.688.06.134.144.202.253.202h2.21v2.853c-.223.12-.463.21-.722.27-.259.06-.52.09-.785.09-.54 0-1.035-.087-1.483-.261a3.072 3.072 0 01-1.15-.773 3.556 3.556 0 01-.744-1.272c-.177-.506-.266-1.092-.266-1.757 0-.605.087-1.158.26-1.658.176-.5.425-.929.75-1.286a3.334 3.334 0 011.172-.826 3.874 3.874 0 011.534-.293c.528 0 .993.054 1.393.162.4.108.744.225 1.032.35.289.127.52.243.695.351.174.108.3.162.379.162.054 0 .1-.015.14-.045a.336.336 0 00.099-.157c.027-.075.048-.175.063-.301s.022-.276.022-.45c0-.3-.018-.526-.054-.678a.741.741 0 00-.175-.355zm-19.333 6.448l1.686-5.05h.01l1.686 5.05h-3.382zm3.483-6.869a.887.887 0 00-.134-.275.477.477 0 00-.257-.152 2.321 2.321 0 00-.503-.064c-.215-.01-.504-.014-.866-.014-.313 0-.565.005-.755.014-.19.01-.34.03-.447.064a.459.459 0 00-.235.147.911.911 0 00-.13.253l-3.676 10.542a3.02 3.02 0 00-.138.514c-.018.129.003.229.064.299.062.07.172.114.332.133.16.018.381.027.664.027.263 0 .477-.006.64-.018.163-.012.289-.035.378-.069a.394.394 0 00.193-.138.719.719 0 00.097-.216l.756-2.323h4.478l.801 2.388c.025.08.056.144.093.193a.366.366 0 00.193.114c.092.028.226.046.401.055a14.68 14.68 0 001.442-.009c.172-.015.291-.055.36-.119.067-.064.092-.16.073-.29a3.185 3.185 0 00-.138-.523L41.29 4.557zM30.077 8.721a1.898 1.898 0 01-.38.675 1.673 1.673 0 01-.645.44c-.264.105-.59.157-.98.157h-1.647V5.93h1.59c.255 0 .5.017.739.051.238.034.465.116.682.245.217.13.4.33.548.602.149.271.223.617.223 1.036 0 .309-.043.594-.13.856zm1.885-3.377a3.241 3.241 0 00-.943-.726 4.102 4.102 0 00-1.09-.394 8.663 8.663 0 00-.924-.138 9.724 9.724 0 00-.812-.033H24.81c-.247 0-.447.073-.598.218-.152.144-.228.362-.228.652v10.77a.27.27 0 00.056.166c.037.049.102.09.195.12.093.03.218.055.376.074.157.018.354.028.589.028.241 0 .44-.01.595-.028.154-.019.278-.043.37-.074a.42.42 0 00.2-.12c.04-.05.06-.105.06-.167v-3.82h1.554c.792 0 1.48-.094 2.066-.278.584-.186 1.078-.455 1.48-.81.403-.355.71-.791.92-1.31.21-.517.315-1.113.315-1.785a4 4 0 00-.204-1.318 3.033 3.033 0 00-.594-1.027z" fill="#373334"/></g></symbol><symbol id="icon-ok-footer"><g fill="none"><g clip-path="url(#clip0_701_202)"><ellipse cx="12.471" cy="11.941" rx="12.353" ry="11.941" fill="#373334"/><path d="M15.201 18.885l-.707.191c-1.39.6-2.942.773-4.45.494a1.306 1.306 0 01-.74-.358 1.321 1.321 0 01-.287-.56 1.273 1.273 0 01.009-.623c.061-.285.229-.537.47-.708.241-.171.54-.25.84-.222.394.002.77.068 1.163.07a6.923 6.923 0 002.465-.564 6.94 6.94 0 002.946-2.224c.248-.35.463-.72.644-1.108.157-.353.424-.648.763-.846a1.277 1.277 0 011.355.108c.136.079.255.182.35.305a1.124 1.124 0 01.08 1.288A6.6 6.6 0 0119 16.116a9.817 9.817 0 01-1.626 1.526l-.42.234.216.081 5.164 1.38c.258.055.493.188.67.38.176.193.284.435.308.69.035.256-.006.515-.119.747a1.327 1.327 0 01-.518.56 1.132 1.132 0 01-.882.086l-3.715-.959-.411-.156c-.12-.043-.176-.012-.21.117l-.537 2.002c-.185.69-.356 1.37-.62 2.084a1.117 1.117 0 01-.533.667 1.194 1.194 0 01-.868.112 1.437 1.437 0 01-.788-.441 1.116 1.116 0 01-.256-.479 1.074 1.074 0 01.003-.535l.722-2.69.594-2.438.03-.2z" fill="#fff"/><path d="M8.624 5.95a5.386 5.386 0 013.004-.664 5.49 5.49 0 012.904 1.078 5.283 5.283 0 011.82 2.456c.344.972.386 2.017.118 3.003a5.034 5.034 0 01-1.622 2.531 5.299 5.299 0 01-2.814 1.204 5.493 5.493 0 01-3.051-.534 5.374 5.374 0 01-2.257-2.088 5.044 5.044 0 01-.54-3.896 5.055 5.055 0 012.438-3.09zm.408 5.723c.258.443.644.803 1.109 1.036.465.232.988.327 1.504.272.516-.055 1.001-.257 1.394-.582.393-.324.677-.756.815-1.24.139-.485.125-1-.038-1.482a2.614 2.614 0 00-.878-1.226 2.719 2.719 0 00-1.423-.557 2.673 2.673 0 00-1.49.299c-.303.16-.568.378-.782.64a2.482 2.482 0 00-.211 2.84z" fill="#fff"/></g></g></symbol><symbol id="icon-ok"><g fill="none"><g clip-path="url(#clip0_701_179)"><circle cx="8" cy="8" r="8" fill="#373334"/><path d="M9.77 12.659l-.46.131a4.887 4.887 0 01-2.889.352.823.823 0 01-.477-.237.877.877 0 01-.175-.788.8.8 0 01.854-.628c.255 0 .499.041.754.04a4.422 4.422 0 001.601-.388A4.61 4.61 0 0010.9 9.642c.163-.235.304-.484.423-.744.104-.236.278-.435.5-.568a.8.8 0 01.877.066.77.77 0 01.272 1.061 4.53 4.53 0 01-.726 1.334c-.315.381-.671.726-1.062 1.028l-.274.158.14.053 3.342.898a.792.792 0 01.629.71.897.897 0 01-.42.875.727.727 0 01-.572.063l-2.404-.623-.266-.103c-.078-.028-.114-.007-.137.08l-.358 1.34c-.123.46-.237.917-.412 1.395a.758.758 0 01-.912.527.908.908 0 01-.51-.291.74.74 0 01-.158-.676l.48-1.802.398-1.63.02-.134z" fill="#F2F2F2"/><path d="M5.527 4.005a3.443 3.443 0 013.832.248 3.456 3.456 0 01.166 5.342 3.442 3.442 0 01-3.81.476 3.455 3.455 0 01-1.454-1.386 3.443 3.443 0 01-.331-2.602 3.433 3.433 0 011.597-2.078zm.236 3.825a1.712 1.712 0 001.69.862 1.705 1.705 0 001.425-2.22 1.712 1.712 0 00-2.453-.974 1.705 1.705 0 00-.662 2.332z" fill="#F2F2F2"/></g></g></symbol><symbol id="icon-play"><g fill="none"><path d="M29.372 17.058L.852 33.524V.591l28.52 16.467z" fill="#373334"/></g></symbol><symbol id="icon-search"><g fill="none"><path d="M13.21 11.619a7.264 7.264 0 001.415-4.306C14.625 3.28 11.345 0 7.312 0 3.28 0 0 3.28 0 7.313c0 4.032 3.28 7.312 7.312 7.312 1.611 0 3.097-.53 4.307-1.416L16.409 18 18 16.41l-4.79-4.791zm-5.898.756A5.068 5.068 0 012.25 7.313 5.068 5.068 0 017.312 2.25a5.068 5.068 0 015.063 5.063 5.068 5.068 0 01-5.063 5.062z" fill="#373334"/></g></symbol><symbol id="icon-tick"><g fill="none"><path d="M1.5 1l4 4 4-4" stroke="currentColor" stroke-width="2"/></g></symbol><symbol id="icon-vk-footer"><g fill="none"><path d="M16.044 10.56c0 .71-.027 1.377-.031 2.037-.009.36.032.719.122 1.067.054.222.175.42.346.566a.336.336 0 00.304.061c.184-.06.352-.164.493-.301.336-.321.64-.677.906-1.063a20.335 20.335 0 002.313-4.357c.107-.26.209-.517.308-.782.07-.202.21-.37.393-.473a.937.937 0 01.36-.06h4.901c.136.017.268.054.394.11.103.03.192.095.254.185.062.089.094.197.09.307 0 .28-.054.556-.158.814a9.977 9.977 0 01-.993 1.878c-.737 1.164-1.577 2.252-2.365 3.363-.264.37-.512.754-.749 1.14-.14.215-.204.472-.18.73.033.249.143.48.314.659.288.318.58.631.887.928.824.76 1.596 1.576 2.313 2.444.335.412.623.86.86 1.34.057.129.097.266.118.407a.765.765 0 01-.04.466.734.734 0 01-.303.348 1.671 1.671 0 01-.88.273c-1.162.033-2.324.024-3.483.094a2.854 2.854 0 01-2.04-.725 9.649 9.649 0 01-1.183-1.197c-.394-.444-.76-.892-1.182-1.316a2.695 2.695 0 00-.603-.46.679.679 0 00-.895.147c-.195.243-.331.53-.398.838-.126.47-.196.955-.209 1.442a3.76 3.76 0 01-.035.363.849.849 0 01-.183.417.807.807 0 01-.369.254 1.531 1.531 0 01-.603.127h-1.576a7.48 7.48 0 01-2.684-.534 10.305 10.305 0 01-4.035-2.85 26.017 26.017 0 01-2.916-4.04A57.898 57.898 0 01.08 8.232a1.028 1.028 0 01-.074-.505.362.362 0 01.06-.18.346.346 0 01.14-.122c.195-.101.41-.154.627-.154H4.75c.232.016.455.102.641.246.186.145.328.342.407.568.339.924.746 1.82 1.218 2.68a23.513 23.513 0 001.722 2.748c.216.323.482.607.788.84a.624.624 0 00.71.072.678.678 0 00.271-.325c.144-.34.231-.702.26-1.071.087-.86.104-1.727.052-2.59a9.51 9.51 0 00-.154-1.535c-.024-.127-.067-.249-.09-.375a.845.845 0 00-.155-.321.812.812 0 00-.271-.225 1.962 1.962 0 00-.895-.305c-.09 0-.122-.049-.082-.13a.901.901 0 01.134-.224 1.798 1.798 0 011.099-.59 9.418 9.418 0 011.852-.143c.69 0 1.383 0 2.077.044.3.02.6.07.89.151.232.048.442.175.595.361.153.187.24.421.249.665.033.393.045.787.035 1.181-.008.534-.04 1.071-.059 1.568z" fill="#373334"/></g></symbol><symbol id="icon-vk"><g fill="none"><path d="M10.696 6.79c0 .455-.018.884-.02 1.308-.007.231.02.462.08.686a.69.69 0 00.232.364.226.226 0 00.202.039.855.855 0 00.328-.194 4.4 4.4 0 00.605-.683 12.922 12.922 0 001.542-2.801c.07-.167.139-.332.205-.503a.56.56 0 01.262-.303.645.645 0 01.24-.04h3.268c.09.012.178.036.262.071a.318.318 0 01.229.317c0 .18-.036.358-.105.523-.176.425-.398.83-.662 1.207-.492.749-1.051 1.448-1.577 2.163-.176.238-.341.484-.499.733a.719.719 0 00-.12.468c.022.16.096.31.21.424.191.204.386.406.59.597a16.284 16.284 0 011.543 1.57c.223.265.415.554.573.862a.952.952 0 01.078.262.475.475 0 01-.228.523c-.176.11-.378.172-.586.176-.775.02-1.55.015-2.322.06a1.946 1.946 0 01-1.361-.466 6.318 6.318 0 01-.788-.77c-.263-.285-.507-.573-.789-.845a1.787 1.787 0 00-.401-.296.466.466 0 00-.597.094c-.13.156-.22.341-.265.54a3.818 3.818 0 00-.14.926 2.33 2.33 0 01-.023.233.536.536 0 01-.368.432c-.127.053-.264.08-.402.081h-1.05a5.147 5.147 0 01-1.79-.343 6.874 6.874 0 01-2.69-1.832 16.757 16.757 0 01-1.944-2.597A36.726 36.726 0 01.054 5.292a.64.64 0 01-.05-.325.227.227 0 01.134-.194c.13-.065.272-.099.417-.099h2.612a.803.803 0 01.699.524c.225.594.497 1.17.811 1.722.341.615.725 1.205 1.148 1.767.144.208.322.39.526.54a.424.424 0 00.473.046.44.44 0 00.181-.209c.095-.218.154-.451.173-.688.058-.554.07-1.11.035-1.665a5.904 5.904 0 00-.103-.987c-.016-.081-.045-.16-.06-.241a.536.536 0 00-.284-.35 1.34 1.34 0 00-.596-.197c-.06 0-.082-.032-.056-.084a.575.575 0 01.09-.144c.192-.208.451-.343.733-.38.407-.07.82-.1 1.234-.091.46 0 .923 0 1.385.029.2.012.4.045.594.096a.7.7 0 01.562.66c.022.253.03.506.024.76-.006.342-.027.688-.04 1.007z" fill="#373334"/></g></symbol><symbol id="icon-yt-footer"><g fill="none"><g clip-path="url(#clip0_701_207)"><path d="M22.83 7.165s-.226-1.647-.92-2.37c-.878-.951-1.86-.956-2.31-1.012-3.225-.243-8.066-.243-8.066-.243h-.01s-4.84 0-8.065.243c-.45.056-1.432.06-2.31 1.012-.694.723-.915 2.37-.915 2.37S0 9.1 0 11.032v1.81c0 1.93.23 3.866.23 3.866s.225 1.647.914 2.37c.878.951 2.031.919 2.545 1.021 1.846.182 7.84.238 7.84.238s4.846-.009 8.071-.247c.45-.056 1.432-.06 2.31-1.012.694-.723.92-2.37.92-2.37s.229-1.93.229-3.866v-1.81c0-1.931-.23-3.867-.23-3.867zM9.146 15.039V8.326l6.229 3.368-6.229 3.345z" fill="#373334"/></g></g></symbol><symbol id="icon-yt"><g fill="none"><path d="M14.85 4.8s-.146-1.103-.597-1.587c-.571-.638-1.21-.641-1.503-.679-2.098-.162-5.247-.162-5.247-.162h-.006s-3.15 0-5.247.162c-.293.038-.932.041-1.503.679C.296 3.697.152 4.8.152 4.8S0 6.097 0 7.39v1.213c0 1.294.15 2.59.15 2.59s.146 1.104.594 1.588c.571.638 1.321.616 1.655.685 1.202.122 5.101.159 5.101.159s3.152-.006 5.25-.166c.293-.037.932-.04 1.503-.678.451-.484.598-1.587.598-1.587S15 9.9 15 8.604V7.39c0-1.294-.15-2.591-.15-2.591zm-8.9 5.275V5.578l4.052 2.256-4.052 2.241z" fill="#373334"/></g></symbol></svg>