<svg width="32" height="32" viewBox="0 0 32 32" fill="none" xmlns="http://www.w3.org/2000/svg">
<g clip-path="url(#clip0_843_32)">
<path fill-rule="evenodd" clip-rule="evenodd" d="M27.7556 25.6978C27.4431 26.8522 26.9971 27.4519 25.5586 27.7838C22.3725 28.3916 19.1862 28.548 15.9998 28.5478C12.8138 28.548 9.62752 28.3916 6.44128 27.7838C5.00303 27.4519 4.55688 26.8522 4.24423 25.6979C3.614 22.4655 3.45274 19.2326 3.45342 16C3.45257 12.7674 3.614 9.53471 4.2444 6.30207C4.55688 5.14765 5.00303 4.54789 6.44145 4.21602C9.62769 3.60843 12.8138 3.45202 16 3.45202C19.1864 3.45185 22.3727 3.60843 25.5587 4.21602C26.9973 4.54789 27.4431 5.14799 27.7558 6.30207C28.3863 9.53471 28.5474 12.7674 28.5468 16C28.5476 19.2326 28.3863 22.4655 27.7556 25.6978ZM32 15.9855H31.9995C31.998 12.556 31.6931 9.12608 31.0765 5.69653C30.6891 3.42973 28.9038 1.45345 26.4418 0.948995C22.9688 0.316729 19.4958 0.00323366 16.0228 0.000510579V0C16.015 0 16.0075 0.000170193 15.9998 0.000170193C15.9923 0.000170193 15.9848 0 15.9774 0V0.000510579C12.5045 0.00323366 9.03117 0.316559 5.55817 0.948995C3.09616 1.45345 1.31087 3.4299 0.923467 5.69653C0.306857 9.12608 0.00204344 12.556 0.000510861 15.9855H0C0 15.9903 0.000170287 15.9952 0.000170287 16C0.000170287 16.0048 0 16.0099 0 16.0145H0.000510861C0.00204344 19.444 0.306857 22.8739 0.923467 26.3035C1.31087 28.5699 3.09616 30.5466 5.55817 31.0512C9.03117 31.6831 12.5042 31.9968 15.9774 31.9997V31.9998C15.9848 31.9998 15.9923 31.9998 15.9998 31.9998C16.0077 31.9997 16.0152 32 16.0228 32V31.9991C19.4958 31.9968 22.9688 31.6833 26.4418 31.051C28.9038 30.5462 30.6893 28.5698 31.0765 26.3033C31.6931 22.8734 31.998 19.4439 31.9995 16.0143H32C32 16.0094 31.9998 16.0046 31.9998 15.9998C32 15.9951 32 15.9903 32 15.9855Z" fill="#373334"/>
<path fill-rule="evenodd" clip-rule="evenodd" d="M24.4954 21.3262L19.2073 16.0017L21.5792 13.6132C21.7585 13.4838 21.916 13.3271 22.0431 13.146L24.0197 11.1558C24.5172 10.6792 24.9119 10.1993 24.9119 9.51035C24.9119 8.42418 24.031 7.54395 22.9446 7.54395C22.3262 7.54395 21.8225 7.85285 21.4067 8.23595L21.3948 8.25484L18.8917 10.7747L18.8825 10.7655L16.4449 13.2202L14.0074 10.7657L13.9978 10.7749L11.4955 8.25501L11.4832 8.24378C10.9969 7.78239 10.5638 7.54395 9.94535 7.54395C8.85892 7.54395 7.97819 8.42418 7.97819 9.51035C7.97819 10.1993 8.41209 10.6634 8.87016 11.1558L10.8468 13.146C10.9739 13.3269 11.1314 13.4838 11.3109 13.6132L13.6826 16.0017L8.39472 21.3262L8.39097 21.3151C8.11783 21.6528 7.97717 22.1136 7.97717 22.5817C7.97717 23.6675 8.8579 24.5481 9.9445 24.5481C10.6388 24.5477 11.1452 24.1565 11.5976 23.645L13.4911 21.7385C13.7387 21.5843 13.9517 21.3796 14.1097 21.1345L16.4449 18.7831L18.7802 21.1345C18.9384 21.3798 19.1512 21.5843 19.3988 21.7389L21.2924 23.6452C21.729 24.078 22.2513 24.5483 22.9456 24.5483C24.032 24.5479 24.9129 23.6678 24.9129 22.5818C24.9129 22.1138 24.7799 21.6686 24.5066 21.3311L24.4954 21.3262Z" fill="#373334"/>
</g>
<defs>
<clipPath id="clip0_843_32">
<rect width="32" height="32" fill="none"/>
</clipPath>
</defs>
</svg>
